<?xml version="1.0" encoding="UTF-8" standalone="no"?>
<svg
   xmlns:dc="http://purl.org/dc/elements/1.1/"
   xmlns:cc="http://creativecommons.org/ns#"
   xmlns:rdf="http://www.w3.org/1999/02/22-rdf-syntax-ns#"
   xmlns:svg="http://www.w3.org/2000/svg"
   xmlns="http://www.w3.org/2000/svg"
   xmlns:sodipodi="http://sodipodi.sourceforge.net/DTD/sodipodi-0.dtd"
   xmlns:inkscape="http://www.inkscape.org/namespaces/inkscape"
   t="1493733572791"
   class="icon"
   style=""
   viewBox="0 0 1024 1024"
   version="1.1"
   p-id="894"
   width="128"
   height="128"
   id="svg8"
   sodipodi:docname="memoink.svg"
   inkscape:version="0.92.1 unknown">
  <metadata
     id="metadata12">
    <rdf:RDF>
      <cc:Work
         rdf:about="">
        <dc:format>image/svg+xml</dc:format>
        <dc:type
           rdf:resource="http://purl.org/dc/dcmitype/StillImage" />
      </cc:Work>
    </rdf:RDF>
  </metadata>
  <sodipodi:namedview
     pagecolor="#ffffff"
     bordercolor="#666666"
     borderopacity="1"
     objecttolerance="10"
     gridtolerance="10"
     guidetolerance="10"
     inkscape:pageopacity="0"
     inkscape:pageshadow="2"
     inkscape:window-width="1920"
     inkscape:window-height="1028"
     id="namedview10"
     showgrid="true"
     showguides="true"
     inkscape:snap-page="true"
     inkscape:zoom="5.2149125"
     inkscape:cx="16.38622"
     inkscape:cy="69.600793"
     inkscape:window-x="0"
     inkscape:window-y="27"
     inkscape:window-maximized="1"
     inkscape:current-layer="layer3"
     inkscape:snap-grids="false"
     inkscape:snap-to-guides="false">
    <inkscape:grid
       type="xygrid"
       id="grid4489" />
  </sodipodi:namedview>
  <defs
     id="defs4">
    <style
       type="text/css"
       id="style2" />
  </defs>
  <g
     inkscape:groupmode="layer"
     id="layer3"
     inkscape:label="Layer 3">
    <path
       id="rect6626"
       style="fill:#ffffff;stroke-width:7.12476635"
       d="m 200.72133,56.4403 h 627.30973 c 79.07167,0 142.72864,63.44904 142.72864,142.26241 V 824.6573 c 0,78.81337 -63.65697,142.26239 -142.72864,142.26239 H 200.72133 c -79.07167,0 -142.728637,-63.44902 -142.728637,-142.26239 V 198.70271 c 0,-78.81337 63.656967,-142.26241 142.728637,-142.26241 z"
       inkscape:connector-curvature="0" />
  </g>
  <g
     inkscape:groupmode="layer"
     id="layer1"
     inkscape:label="Layer 1"
     style="display:inline">
    <path
       id="path6"
       d="m 721.36612,879.69043 c -6.61357,-1.64146 -8.38471,-3.16998 -16.57426,-14.308 -3.78848,-5.14274 -7.04833,-11.80565 -7.72598,-15.77293 -0.64638,-3.77235 -1.72504,-7.63506 -2.39199,-8.57962 -2.56325,-3.60083 -7.65353,-45.5033 -9.24434,-76.10462 -0.72048,-13.86877 -0.43146,-16.50665 2.15567,-19.5001 4.58635,-5.32179 20.07043,-3.56487 30.69232,3.47199 24.14791,16.01138 45.58683,37.49931 56.20708,56.34936 8.6136,15.28769 8.84828,16.05153 8.84828,28.77245 0,7.18579 -0.64968,14.40671 -1.45084,16.04482 -0.79624,1.64147 -2.41833,5.13857 -3.60156,7.77981 -2.97495,6.64031 -12.80638,18.36982 -15.39597,18.36982 -1.17582,0 -3.054,1.15872 -4.17795,2.57849 -1.56447,1.96774 -5.5555,2.53246 -17.02878,2.39776 -8.23897,-0.0962 -17.38202,-0.77387 -20.30674,-1.49672 z M 348.14839,795.30319 c -1.08525,-2.1175 -1.55952,-7.748 -1.12477,-13.25468 0.74024,-9.32086 1.05807,-9.85714 12.03896,-20.26143 17.23299,-16.33013 22.79589,-18.44931 18.1939,-6.93816 -1.32074,3.30719 -2.92143,11.80984 -3.55463,18.90025 -0.9642,10.754 -1.96382,13.91144 -6.02483,19.06255 -4.0635,5.15278 -5.91861,6.17263 -11.25179,6.17263 -4.85808,0 -6.84824,-0.88766 -8.27519,-3.68116 z m 254.591,-14.72463 c -6.18128,-2.43041 -11.54491,-8.07345 -15.45279,-16.27157 -3.80906,-7.99397 -4.24546,-10.8887 -4.24546,-28.20772 0,-10.61429 0.65872,-19.72349 1.46566,-20.2447 2.16308,-1.39466 3.97539,-30.11273 2.65382,-42.03383 -0.96996,-8.7143 -2.15566,-11.51115 -7.69963,-18.09206 -7.91784,-9.3995 -14.17075,-10.37668 -21.23554,-3.30718 -4.41097,4.42073 -8.02076,4.36886 -8.02076,-0.10793 0,-1.26247 -2.61019,-4.69348 -5.80169,-7.62419 -5.22614,-4.79303 -6.87541,-5.32596 -16.5158,-5.32596 -10.41604,0 -10.92161,0.21167 -18.41292,7.60661 l -7.70376,7.60411 -0.47839,17.70888 c -0.69907,25.86182 -4.19359,32.29883 -17.55823,32.29883 -7.27147,0 -8.79723,-0.58898 -10.59224,-4.09445 -1.38332,-2.709 -1.69209,-6.56167 -0.91316,-11.39152 0.97903,-6.05467 3.46076,-9.79105 14.48036,-21.78828 13.27818,-14.45859 13.30535,-14.50628 13.30535,-23.71921 0,-7.16655 -0.81517,-10.13324 -3.63862,-13.27644 -4.42249,-4.92272 -15.95917,-11.54713 -20.10994,-11.54713 -1.66574,0 -3.48958,-0.77388 -4.04538,-1.71258 -0.55744,-0.9479 -4.52707,-1.71675 -8.8211,-1.71675 -6.47936,0 -8.58562,0.8475 -12.3955,5.00972 -4.3665,4.7646 -4.56823,5.6807 -4.00256,18.4493 l 0.59285,13.43875 -8.03641,0.53376 c -7.38674,0.48943 -8.55432,0.006 -14.3659,-5.92666 -3.4764,-3.55233 -6.32702,-7.52045 -6.32702,-8.81555 0,-1.29593 -4.17546,-6.93061 -9.27809,-12.52347 -9.04919,-9.91737 -9.49877,-10.1692 -17.97322,-10.1692 -7.8956,0 -9.06731,0.51452 -12.70922,5.57696 -2.20589,3.06707 -4.52706,8.86657 -5.1545,12.88071 -1.36767,8.73605 -5.63783,12.43478 -14.34695,12.43478 -6.39042,0 -12.77179,-4.60396 -12.77179,-9.20875 0,-4.04259 6.8754,-11.69772 12.85495,-14.308 3.15116,-1.3796 10.04715,-7.01511 15.3194,-12.52598 9.17681,-9.59862 9.58357,-10.39676 9.58357,-18.76471 0,-10.5666 -1.48871,-13.57009 -13.07315,-26.2885 -12.30656,-13.51069 -15.22223,-13.37098 -29.06691,1.39466 -5.80993,6.18853 -13.03446,15.26594 -16.05224,20.16271 -3.01858,4.90013 -7.83302,11.22503 -10.69022,14.05534 -4.89595,4.84407 -6.108,5.18207 -20.52084,5.73676 l -15.31692,0.58898 -6.65556,-6.28642 c -5.2146,-4.92271 -6.89516,-7.93791 -7.74574,-13.88048 -1.77937,-12.38793 0.28983,-18.9563 8.92156,-28.31481 l 7.81244,-8.47085 15.48408,0.0242 c 9.29044,0.0159 18.11814,1.0165 22.05894,2.49818 3.61062,1.36202 10.66223,2.50903 15.67264,2.5492 8.43658,0.0677 9.53828,-0.39907 14.92746,-6.36172 8.13439,-8.99793 11.26166,-17.14835 11.26166,-29.32378 0,-13.80518 -1.6188,-17.5926 -12.73143,-29.77305 -8.58562,-9.41122 -9.41644,-10.99328 -9.2781,-17.68547 0.12433,-5.99526 1.41048,-8.90588 6.97669,-15.81225 5.83627,-7.23264 6.82518,-9.59862 6.82518,-16.33013 0,-7.33135 -0.60356,-8.44323 -8.90922,-16.38199 -8.65148,-8.26504 -14.13617,-10.70716 -24.03017,-10.70716 -2.54431,0 -5.08121,-0.77387 -5.6403,-1.71675 -0.55745,-0.94288 -2.90908,-1.71676 -5.22943,-1.71676 -5.08121,0 -29.93314,-12.34778 -26.9516,-13.38352 1.15359,-0.40578 2.92143,0.12632 3.92105,1.17461 1.00701,1.05249 3.38336,1.91254 5.27554,1.91254 1.89794,0 4.31874,0.90858 5.38587,2.0238 1.34544,1.40553 11.59597,2.06229 33.59562,2.14595 30.95993,0.11879 31.98836,0.006 46.37484,-5.03064 14.17569,-4.96288 15.32928,-5.77106 31.79156,-22.30866 21.77322,-21.87362 25.68438,-29.59067 25.68438,-50.63436 0,-17.4579 -2.10462,-21.59501 -20.52083,-40.33379 -15.31281,-15.57549 -19.70154,-22.75543 -19.70154,-32.23107 0,-9.43966 2.11203,-11.5354 11.62314,-11.5354 7.05656,0 8.15333,0.59734 13.45357,7.36816 6.15493,7.84673 9.37691,17.13246 9.39255,27.06574 0.0157,10.87447 6.46041,32.98318 11.10193,38.07824 4.5707,5.02311 11.43129,6.22786 14.88464,2.62115 1.58669,-1.6607 2.69335,-1.6607 5.23272,0 6.64486,4.34126 13.60425,2.60443 20.94488,-5.21803 3.79094,-4.03924 7.32993,-9.72162 7.8989,-12.67407 1.24663,-6.51984 -2.41834,-15.30024 -9.23857,-22.12963 -3.72343,-3.73219 -4.84819,-6.38765 -4.84819,-11.4551 0,-4.42575 0.85469,-6.94317 2.58794,-7.64008 4.11537,-1.64731 7.43533,3.36492 10.02163,15.12706 3.16269,14.39835 8.39541,20.3451 17.90324,20.3451 5.91202,0 7.68481,-0.91528 12.22999,-6.33327 l 5.32329,-6.3408 -0.89421,-20.32586 c -0.49322,-11.17984 -1.62128,-21.26538 -2.50891,-22.41324 -0.88268,-1.14283 -2.14743,-6.27722 -2.80779,-11.40406 -0.66203,-5.12685 -2.5015,-11.74207 -4.09314,-14.70623 -1.59163,-2.95916 -3.41136,-7.83 -4.03715,-10.82345 -0.62824,-2.99596 -1.82301,-5.88148 -2.65794,-6.42446 -2.06838,-1.33442 -1.92099,-22.51531 0.18445,-26.63068 1.38825,-2.709 3.48958,-3.32141 11.43458,-3.32141 8.20438,0 10.02411,0.5664 11.57621,3.60085 2.17626,4.2509 0.53686,23.44814 -2.32034,27.13182 -1.24252,1.60465 -1.83948,12.23232 -1.77526,31.75 l 0.0898,29.33967 9.92941,18.88017 9.72274,-0.50867 c 17.1424,-0.9044 19.7847,0.29867 33.94887,15.4433 12.88624,13.78677 12.89694,13.79347 19.73283,12.65064 14.31154,-2.39024 16.26795,-11.10539 6.66461,-29.68605 -5.03346,-9.73415 -6.038,-13.40694 -6.15492,-22.5404 l -0.14575,-10.91046 7.85197,-7.4443 c 5.91614,-5.60038 9.70708,-7.73128 15.33503,-8.61559 10.39711,-1.62891 25.2694,0.43839 30.16616,4.19819 3.63039,2.78095 4.16313,4.59643 4.59377,15.65329 0.52533,13.48226 -0.18115,15.09192 -16.09175,36.73547 -5.18249,7.05109 -6.50735,15.84405 -2.94861,19.56955 3.26891,3.41594 12.22753,2.32917 20.47554,-2.48478 5.61232,-3.27875 10.32629,-4.59309 16.88798,-4.72109 l 9.09778,-0.1757 0.52533,6.74741 c 0.28983,3.71127 -0.34831,8.46415 -1.41955,10.55571 -1.10583,2.15934 -1.5447,6.65872 -1.01937,10.41267 l 2.70405,19.23741 c 3.06635,21.88365 6.58557,26.07683 22.9334,27.2983 l 11.36872,0.85253 -8.92486,8.52774 c -10.25959,9.80276 -11.12088,13.93319 -4.32369,20.74082 4.02973,4.03505 5.93426,4.60898 15.24859,4.60898 9.47982,0 25.75519,-4.19401 28.8553,-7.44096 0.60108,-0.62496 2.25777,-1.14283 3.68802,-1.1512 1.43025,0 4.71727,-1.16291 7.30275,-2.5718 6.46042,-3.52386 27.75524,-3.46614 32.94926,0.0962 9.68321,6.6311 9.52265,21.38921 -0.32936,29.87679 -5.77781,4.97877 -6.75519,5.22139 -21.18366,5.22139 -8.31801,0 -15.58372,-0.77387 -16.13869,-1.71257 -0.55744,-0.9479 -2.3047,-1.71927 -3.88152,-1.71927 -1.57187,0 -6.75519,-2.02715 -11.51033,-4.50105 -7.09196,-3.69707 -11.11429,-4.54875 -22.34549,-4.72444 -12.39303,-0.19578 -14.11147,0.18406 -17.94523,3.94386 -6.65555,6.53155 -5.80992,13.82276 2.43151,20.95835 17.82172,15.4433 33.24239,32.0537 36.42895,39.24618 2.71312,6.11323 3.43359,11.17734 3.4657,24.32828 0.0626,23.48831 -4.1557,31.22041 -26.85444,49.25057 -4.45378,3.53977 -7.47977,4.18982 -23.05525,4.96287 -20.47554,1.0165 -22.39572,0.19828 -23.97912,-10.15247 -0.56074,-3.67196 -1.66162,-7.0946 -2.44551,-7.6041 -0.78469,-0.50533 -1.42695,-2.4622 -1.42695,-4.34127 0,-9.1619 -12.26952,-26.75784 -22.4657,-32.21516 -1.97205,-1.05583 -7.60494,-1.91922 -12.51325,-1.91922 -8.01582,0 -9.64285,0.6693 -15.99129,6.55163 -6.58557,6.10988 -7.10843,7.24937 -7.77621,16.88983 -0.66613,9.65384 -0.36888,10.754 4.46531,16.50665 5.26977,6.27721 19.76576,14.97647 24.95568,14.97647 1.57599,0 3.26232,0.66929 3.744,1.48919 0.48664,0.81905 4.03714,2.00372 7.89561,2.63286 15.3828,2.50069 33.87476,12.62638 46.82605,25.62673 5.45587,5.47991 6.97669,8.24496 6.97669,12.69331 0,6.28056 -5.6823,16.68904 -14.49682,26.52777 -4.47684,4.99801 -5.83051,8.12617 -6.45217,14.90452 -0.43148,4.71523 0,10.94726 0.9642,13.83864 2.09062,6.26049 0.39934,6.80429 -6.10059,1.96776 -2.43398,-1.81297 -10.25053,-6.44873 -17.36638,-10.29637 -12.11307,-6.55581 -13.82163,-7.00174 -26.66423,-7.00174 -17.07572,0 -22.27385,2.2112 -32.12832,13.66965 -6.71897,7.81494 -7.74905,9.99686 -7.74905,16.44977 0,4.08608 0.73613,7.90947 1.64352,8.49595 0.9008,0.58145 1.63774,2.61613 1.63774,4.51695 0,2.12419 8.46788,12.52598 21.92061,26.9327 12.05708,12.90497 23.14008,25.94213 24.6255,28.96152 1.70032,3.4536 2.70404,9.65886 2.70404,16.70493 0,10.88118 -0.20832,11.43921 -7.10184,18.963 -4.03713,4.404 -8.60785,7.75469 -10.57659,7.75469 -1.90618,0 -3.92352,0.77389 -4.48096,1.71258 -1.06713,1.80376 -14.64257,2.14595 -18.88308,0.47772 z m 164.99827,-42.84201 c -10.14843,-2.39778 -27.99733,-18.56225 -38.50393,-34.86728 -2.1285,-3.30718 -7.26406,-9.72746 -11.41483,-14.27536 -7.49955,-8.21317 -7.51437,-8.25584 -2.61924,-7.0536 2.70899,0.66595 5.90049,2.01124 7.08785,2.9901 1.18816,0.98554 13.74669,2.33921 27.91168,3.01772 14.16005,0.67682 28.46748,2.19782 31.79156,3.38164 3.32489,1.17964 9.52676,5.83548 13.77058,10.34741 6.72142,7.12974 7.83631,9.34428 8.53373,16.95509 0.89834,9.75841 -1.17582,13.51905 -9.98868,18.11464 -4.62506,2.40949 -19.05189,3.16412 -26.57119,1.3863 z M 171.8407,390.95709 c -2.68512,-0.41496 -6.74696,-2.12753 -9.03355,-3.80749 -2.28658,-1.67994 -5.86756,-3.61172 -7.95818,-4.29441 -5.72758,-1.85898 -14.73149,-10.81005 -17.95511,-17.8486 -2.02968,-4.43245 -2.86461,-10.498 -2.86873,-20.84038 0,-12.28419 0.60356,-15.60728 3.81647,-21.00268 4.7041,-7.90948 19.75754,-21.90542 23.55836,-21.90542 1.54058,0 3.26232,-0.77388 3.81894,-1.71257 0.57226,-0.96881 8.47939,-1.71927 18.0992,-1.71927 15.33751,0 17.88512,0.46098 24.93756,4.50105 16.05222,9.18868 28.27233,26.00656 40.57396,55.83148 1.41954,3.4444 2.58301,6.96325 2.58301,7.81828 0,0.85253 4.07667,6.71979 9.06319,13.04051 7.36945,9.34429 8.46786,11.49024 5.8404,11.49024 -1.76867,0 -3.74402,-0.88767 -4.38298,-1.96774 -1.50188,-2.54168 -49.53834,-0.8358 -52.10571,1.84308 -1.70526,1.78453 -27.59797,2.17607 -37.98518,0.57309 z m 568.82843,-36.16571 c 0.0124,-0.65341 4.03714,-4.87168 8.94956,-9.37191 12.09331,-11.08949 26.04915,-29.39489 38.7032,-50.76318 11.26743,-19.02323 24.67653,-33.66504 35.42193,-38.65553 3.50852,-1.62891 7.84044,-3.81251 9.6231,-4.85159 4.28417,-2.49818 23.20594,-3.84012 32.84552,-2.32918 8.37482,1.31435 20.54634,10.94727 20.54634,16.25483 0,1.59378 0.92551,3.85434 2.05357,5.03566 1.34545,1.40554 2.05027,7.59156 2.05027,17.93561 0,13.52743 -0.61919,17.15923 -4.3385,25.32137 -5.08698,11.17399 -12.62193,18.58985 -26.60248,26.17723 l -10.09985,5.48576 -38.88682,-0.44509 c -24.89391,-0.28696 -39.24746,0.1757 -39.907,1.2859 -0.56403,0.95543 -2.46938,1.73265 -4.24216,1.73265 -1.77115,0 -8.3773,1.88492 -14.68044,4.18732 -6.30315,2.3024 -11.45023,3.65606 -11.43871,3.00266 z m -0.60438,-95.49933 c -6.55016,-6.34916 -5.92273,-14.08378 1.88889,-23.28919 5.63372,-6.63612 6.98822,-7.35729 14.11147,-7.51207 6.8754,-0.15143 8.37481,0.47772 11.81582,4.97459 5.32083,6.94735 5.44845,17.80426 0.26184,22.44001 -10.05127,8.98538 -20.94159,10.29888 -28.07884,3.385 z M 264.94278,186.29132 c -7.77621,-13.01624 9.45512,-25.28789 21.54349,-15.34123 3.32819,2.73159 4.32863,5.07414 4.32863,10.11398 0,7.7547 -1.48624,8.64404 -14.51576,8.64404 -7.52178,0 -9.7145,-0.6601 -11.35636,-3.41344 z"
       inkscape:connector-curvature="0"
       style="stroke-width:0.8299883" />
  </g>
</svg>
